<svg xmlns="http://www.w3.org/2000/svg" width="24" height="24" viewBox="0 0 24 24" fill="none" stroke="#0e8de9" stroke-width="2" stroke-linecap="round" stroke-linejoin="round">
  <path d="M8 2h8"/>
  <path d="M9 2v1.5C9 4.33 8.33 5 7.5 5S6 4.33 6 3.5 5.33 2 4.5 2 3 2.67 3 3.5 2.33 5 1.5 5 0 4.33 0 3.5V9.5C0 10.33.67 11 1.5 11s1.5-.67 1.5-1.5S3.67 8 4.5 8 6 8.67 6 9.5s.67 1.5 1.5 1.5S9 10.33 9 9.5V5"/>
  <path d="M14.5 11H21"/>
  <path d="M16 7v8"/>
  <path d="M15.5 14a2.5 2.5 0 1 0 0 5H22"/>
</svg>