<svg xmlns="http://www.w3.org/2000/svg" viewBox="0 0 39.44 54.47">
<g id="Layer_2" data-name="Layer 2">
<g id="Layer_1-2" data-name="Layer 1">
<path d="M30.65,26.33a9.54,9.54,0,0,1-1.42,0,3.59,3.59,0,0,1-2.63-5.26.74.74,0,0,0,0-.72,4.28,4.28,0,0,1,3.89-6.09l.3,0a2.83,2.83,0,0,0,0-.41c0-1.32,0-2.65,0-4a2.4,2.4,0,1,0-4.8,0c0,.51,0,1,0,1.53s-.29,1-.79,1-.8-.33-.8-1c0-1.28,0-2.56,0-3.83a2.41,2.41,0,0,0-3.23-2.33,2.32,2.32,0,0,0-1.57,2.23c0,.71,0,1.42,0,2.13s-.33,1-.82,1-.78-.37-.78-.95c0-1.33,0-2.66,0-4a2.33,2.33,0,0,0-1.71-2.17,2.3,2.3,0,0,0-2.61.93,3.28,3.28,0,0,0-.43,1.38c-.07.82,0,1.66,0,2.49,0,.61-.32,1-.8,1s-.8-.37-.8-1c0-1.42,0-2.84,0-4.25A2.37,2.37,0,0,0,9.81,1.68,2.33,2.33,0,0,0,7.16,2.79,3.29,3.29,0,0,0,6.82,4.2c0,2.3,0,4.59,0,6.89v.37c0,.58-.3.94-.78.95s-.8-.35-.81-1V7.55a4.37,4.37,0,0,0-3.6,4.26c0,1,0,1.91,0,2.87,0,.62-.29,1-.79,1s-.81-.36-.8-1A29.45,29.45,0,0,1,.1,11,5.85,5.85,0,0,1,4.83,6c.32-.07.39-.19.39-.48A14.75,14.75,0,0,1,5.3,3.3,3.93,3.93,0,0,1,8.69,0a4,4,0,0,1,4.12,2.14l.23.5a4.06,4.06,0,0,1,6.4,1.72,4.05,4.05,0,0,1,3.85-.71,4,4,0,0,1,2.64,2.79,12.7,12.7,0,0,1,1.67-.64,3.93,3.93,0,0,1,4.82,3.73c0,3.16,0,6.32,0,9.48a.82.82,0,0,1-.79.9.8.8,0,0,1-.79-.89c0-1,0-2.09,0-3.13a2.58,2.58,0,0,0-2.95,2,2.64,2.64,0,0,0,.24,1.89,1.66,1.66,0,0,1-.05,1.86,2,2,0,0,0,2.33,3c.3-.1.47-.24.44-.59a9.53,9.53,0,0,1,0-1.07c0-.58.32-.92.81-.91s.76.35.78.9a14.4,14.4,0,0,1-1.5,7.52c-.14.28-.26.56-.38.85,0,0,0,.05,0,.12l.37.12a11.66,11.66,0,0,1,6.59,17.63,1.4,1.4,0,0,1-.1.16.81.81,0,0,1-1.18.32.83.83,0,0,1-.17-1.18c.32-.57.67-1.12.93-1.7a10,10,0,1,0-8.39,6,9.91,9.91,0,0,0,4.67-1.59l.08-.05c.62-.4,1.09-.37,1.37.08s.1.88-.53,1.29a11.45,11.45,0,0,1-13.9-.93,11.1,11.1,0,0,1-3.7-11.53A11.09,11.09,0,0,1,25,31.57a22.06,22.06,0,0,1,3.47-.37c.16,0,.4-.08.45-.19a18.38,18.38,0,0,0,1.7-4.34A3.07,3.07,0,0,0,30.65,26.33Z"/>
<path d="M1.61,21.53a12.57,12.57,0,0,1,2.09-1,4.29,4.29,0,0,1,5.22,3,.66.66,0,0,0,.52.55,4.92,4.92,0,0,1,2.49,1.68.81.81,0,1,1-1.22,1,3.8,3.8,0,0,0-2-1.26,1.79,1.79,0,0,1-1.31-1.47A2.75,2.75,0,0,0,4.76,22,2.69,2.69,0,0,0,2.1,24a1.58,1.58,0,0,0,0,.89,11.56,11.56,0,0,0,2.14,3.54L6.93,32a10.55,10.55,0,0,1,1.8,3.57c0,.13.09.26.14.39a2,2,0,0,0,.94-2.05,2.25,2.25,0,0,1,.69-2.3,4.43,4.43,0,0,0,.85-1.5c.24-.58.56-.85,1.06-.72s.66.57.49,1.17a5,5,0,0,1-1.3,2.25.69.69,0,0,0-.24.69,3.8,3.8,0,0,1-2,4.09.51.51,0,0,0-.28.51q0,7.68,0,15.35a2.3,2.3,0,0,1,0,.37.74.74,0,0,1-.72.67.7.7,0,0,1-.78-.52,1.91,1.91,0,0,1-.07-.63c0-5.06,0-10.12,0-15.17A8.08,8.08,0,0,0,6,33.37c-1.19-1.65-2.44-3.26-3.68-4.87A10.64,10.64,0,0,1,0,21.94c0-1.05,0-2.09,0-3.14,0-.63.29-1,.78-1s.81.37.81,1C1.61,19.74,1.61,20.66,1.61,21.53Z"/>
<path d="M25.06,40c0-1,0-1.84,0-2.72s.24-1.13,1.12-1.13H29.6c.72,0,1,.28,1,1s0,1.61,0,2.41c0,.35.12.44.46.44.8,0,1.6,0,2.4,0s1,.3,1,1v3.6c0,.68-.3,1-1,1H30.61v1c0,.67,0,1.33,0,2s-.3.89-.84.9H25.89c-.54,0-.82-.32-.83-.91,0-.79,0-1.57,0-2.36v-.57h-2.3c-1.44,0-1.54-.1-1.54-1.55V41c0-.67.29-1,1-1Zm4,7.79V45c0-.73.27-1,1-1s1.61,0,2.41,0c.3,0,.45-.07.44-.41,0-.52,0-1,0-1.57,0-.3-.09-.41-.4-.4H30c-.73,0-1-.28-1-1s0-1.64,0-2.45c0-.3-.1-.41-.4-.4-.52,0-1.05,0-1.57,0-.31,0-.4.11-.4.4,0,.8,0,1.6,0,2.41s-.26,1-1,1-1.6,0-2.4,0c-.13,0-.36.13-.37.21,0,.7,0,1.4,0,2.15h2.87c.69,0,.95.26,1,.95s0,1.36,0,2v.82Z"/>
<path d="M13.15,19a17.7,17.7,0,0,1-1.86-.39,2.11,2.11,0,0,1-1.54-2.84,3.4,3.4,0,0,1,6.69.8,1.86,1.86,0,0,1-1.24,1.87A17.53,17.53,0,0,1,13.15,19Zm-.09-1.62c.49-.12,1-.23,1.43-.37a.5.5,0,0,0,.35-.62,1.82,1.82,0,0,0-3.6,0,.53.53,0,0,0,.38.65C12.09,17.14,12.57,17.24,13.06,17.36Z"/>
<path d="M13.45,51.71a14.37,14.37,0,0,1-1.78-.49,1.67,1.67,0,0,1-1.06-1.9,2.82,2.82,0,0,1,5.62.28,1.56,1.56,0,0,1-1,1.56A16.1,16.1,0,0,1,13.45,51.71Zm0-1.68c.31-.06.6-.1.88-.17s.4-.27.28-.59a1.22,1.22,0,0,0-2.32,0c-.1.29,0,.48.27.56S13.12,50,13.41,50Z"/>
<path d="M22.78,30.27a15.54,15.54,0,0,1-1.57-.35A1.8,1.8,0,0,1,20,27.59a2.82,2.82,0,0,1,5.57.59,1.59,1.59,0,0,1-1,1.58A13.58,13.58,0,0,1,22.78,30.27Zm-.05-1.65.87-.19c.29-.06.34-.25.26-.52A1.22,1.22,0,0,0,22.79,27a1.25,1.25,0,0,0-1.22.74c-.17.41-.09.59.35.7A7.85,7.85,0,0,0,22.73,28.62Z"/>
<path d="M21.06,14.63a.79.79,0,1,1,.77-.81A.8.8,0,0,1,21.06,14.63Z"/>
<path d="M14.53,22.27a.81.81,0,0,1,.8.79.79.79,0,0,1-1.58,0A.81.81,0,0,1,14.53,22.27Z"/>
<path d="M14.21,38.88a.79.79,0,1,1-1.58,0,.79.79,0,0,1,1.58,0Z"/>
<path d="M14.78,36.86a.79.79,0,0,1,0-1.58.79.79,0,1,1,0,1.58Z"/>
<path d="M4.56,14.79a.79.79,0,0,1,.81.77.82.82,0,0,1-.77.82.79.79,0,0,1-.8-.78A.77.77,0,0,1,4.56,14.79Z"/>
<path d="M18.19,24.84a.79.79,0,1,1-1.58,0,.79.79,0,1,1,1.58,0Z"/>
<path d="M6.83,18.88a.76.76,0,0,1-.8-.77.75.75,0,0,1,.76-.8.79.79,0,0,1,.81.76A.8.8,0,0,1,6.83,18.88Z"/>
<path d="M18.69,21.52a.79.79,0,1,1-1.57,0,.78.78,0,0,1,.8-.77A.76.76,0,0,1,18.69,21.52Z"/>
<path d="M23,16.83a.77.77,0,0,1-.8-.77.79.79,0,1,1,1.57,0A.78.78,0,0,1,23,16.83Z"/>
</g>
</g>
</svg>