<svg xmlns="http://www.w3.org/2000/svg" viewBox="0 0 54.66 54.64">
<g id="Layer_2" data-name="Layer 2">
<g id="Layer_1-2" data-name="Layer 1">
<path d="M22.85,20.24c.57-.49,1.15-.95,1.68-1.47a1,1,0,0,0,.16-.69V1.3a2.86,2.86,0,0,1,0-.51A.89.89,0,0,1,25.59,0a.86.86,0,0,1,.86.8,3.69,3.69,0,0,1,0,.47c0,5.62,0,11.25,0,16.87a2.49,2.49,0,0,1-.82,2A23,23,0,0,1,23.12,22a.94.94,0,0,0-.53.86c0,.69-.09,1.37-.16,2.19l.63-.48c1.1-.75,2.2-1.52,3.32-2.25a1.65,1.65,0,0,1,1.92,0c1.09.7,2.15,1.44,3.22,2.16.21.15.4.33.7.57,0-.37,0-.63,0-.89A4.33,4.33,0,0,0,32,22.41c-.27-.46-1-.66-1.46-1s-.8-.57-1.18-.89a3.2,3.2,0,0,1-1.16-2.59c0-5.54,0-11.07,0-16.6a3.5,3.5,0,0,1,0-.56A.87.87,0,0,1,29.13,0,.86.86,0,0,1,30,.77a3.46,3.46,0,0,1,0,.56c0,5.55,0,11.1,0,16.64a1.4,1.4,0,0,0,.56,1.24L32,20.26c0-.74,0-1.37.12-2a21.5,21.5,0,0,1,.6-3.12,3.65,3.65,0,0,1,4-2.82,7.74,7.74,0,0,1,4,1.38A11.18,11.18,0,0,1,44,17.36c2.21,3.82,4.86,7.34,7.28,11a20.32,20.32,0,0,1,3.14,7.45,13,13,0,0,1,.24,2.06,49,49,0,0,1-.53,9.68,12,12,0,0,1-2,5.18,4.26,4.26,0,0,1-4.9,1.63,6.7,6.7,0,0,1-1.56-1c-.78-.6-1.51-1.27-2.28-1.88a11,11,0,0,0-6-2.2A14.06,14.06,0,0,1,35.24,49,5.14,5.14,0,0,1,31,44a29.26,29.26,0,0,1,.3-7.65c.31-2,.83-3.88,1.16-5.84a17.42,17.42,0,0,0,.08-2.71.46.46,0,0,0-.17-.35q-2.21-1.71-4.43-3.4a.85.85,0,0,0-1.17,0l-4.39,3.37a.72.72,0,0,0-.2.43,7.55,7.55,0,0,0,.19,3.21,41.52,41.52,0,0,1,1.46,11.52A12.17,12.17,0,0,1,23.52,45a5,5,0,0,1-4.22,4c-1.34.27-2.71.41-4.05.71a11.32,11.32,0,0,0-5.2,2.78c-.42.38-.86.75-1.29,1.12a4.21,4.21,0,0,1-6.22-.85A11,11,0,0,1,.71,48.22,41.56,41.56,0,0,1,.17,36.76a16.48,16.48,0,0,1,2.68-7.37C4.3,27.1,5.9,24.91,7.39,22.65c1.1-1.68,2.11-3.41,3.18-5.1a12.94,12.94,0,0,1,3.49-3.84,7.68,7.68,0,0,1,4.25-1.38,3.46,3.46,0,0,1,3.34,2,9.68,9.68,0,0,1,1,3.92c.05.63.07,1.26.1,1.89ZM52.91,39.93a15.57,15.57,0,0,0-1.19-6.87,30.18,30.18,0,0,0-3.37-5.83c-1.86-2.61-3.69-5.24-5.29-8a17.72,17.72,0,0,0-2-2.69,6.4,6.4,0,0,0-4.38-2.4,2,2,0,0,0-2.28,1.31,2.77,2.77,0,0,0-.26.73,19,19,0,0,0-.4,3.25c.07,2.54.24,5.08.46,7.61A14.36,14.36,0,0,1,34,31.78c-.39,1.6-.72,3.22-1,4.85a27.93,27.93,0,0,0-.3,7.19,3.58,3.58,0,0,0,3.33,3.54c1.3.23,2.63.34,3.93.6a12.3,12.3,0,0,1,5.4,2.89c.61.5,1.18,1,1.81,1.51a2.19,2.19,0,0,0,2.92-.1,4.18,4.18,0,0,0,1-1.21A12.15,12.15,0,0,0,52,48.73,38.07,38.07,0,0,0,52.91,39.93ZM1.77,39.79a42.31,42.31,0,0,0,.79,8.52,8.31,8.31,0,0,0,1.49,3.45,2.38,2.38,0,0,0,3.7.39c.65-.52,1.26-1.09,1.91-1.61a11.7,11.7,0,0,1,5-2.57c1.13-.23,2.28-.36,3.42-.5,2.52-.32,3.66-1.39,3.88-3.91a31.77,31.77,0,0,0-.64-8.91c-.24-1.21-.52-2.41-.81-3.61a15.32,15.32,0,0,1,0-5.1,41.73,41.73,0,0,0,.3-7.66,8.21,8.21,0,0,0-.69-3,1.87,1.87,0,0,0-2.09-1.17,6,6,0,0,0-3,1,9.37,9.37,0,0,0-2.79,3c-2.15,3.58-4.47,7.05-6.88,10.46a22.87,22.87,0,0,0-2.76,5.16A15.81,15.81,0,0,0,1.77,39.79Z"/>
<path d="M11.83,6.17H3.89a2.9,2.9,0,0,1-.51,0,.88.88,0,0,1,0-1.73,4.18,4.18,0,0,1,.5,0H12L10.7,3.11c-.19-.2-.39-.39-.59-.59-.49-.5-.53-1-.13-1.37s.88-.37,1.37.11l2.06,2.06c.42.42.85.84,1.27,1.28a.86.86,0,0,1,0,1.37c-1.12,1.14-2.25,2.28-3.39,3.4a.88.88,0,1,1-1.23-1.26c.61-.61,1.23-1.2,1.84-1.8Z"/>
<path d="M42.86,4.4H50.8a2.74,2.74,0,0,1,.5,0,.82.82,0,0,1,.71.84.84.84,0,0,1-.68.87,2.54,2.54,0,0,1-.55,0H43.34a1.06,1.06,0,0,0-.55.14L44.5,8a2,2,0,0,1,.37.46.75.75,0,0,1-.15,1,.8.8,0,0,1-1,.2,1.31,1.31,0,0,1-.33-.25c-1.09-1.09-2.19-2.17-3.27-3.27-.59-.6-.59-1,0-1.57q1.62-1.65,3.27-3.28a.86.86,0,0,1,1.33-.09.89.89,0,0,1-.09,1.35c-.59.6-1.2,1.18-1.8,1.78Z"/>
<path d="M16.77,5.26A6.91,6.91,0,0,1,18.71.43.9.9,0,0,1,20.05.28a.91.91,0,0,1,0,1.35A5.25,5.25,0,0,0,20,9c.43.49.44,1,0,1.34a.87.87,0,0,1-1.33-.15A6.94,6.94,0,0,1,16.77,5.26Z"/>
<path d="M38,5.27a7.25,7.25,0,0,1-2,4.93.76.76,0,0,1-.94.26,1.58,1.58,0,0,1-.6-.68c-.15-.38.14-.66.38-.93a5.17,5.17,0,0,0,1.39-3.62,5.2,5.2,0,0,0-1.34-3.45l-.18-.21A.88.88,0,1,1,35.94.39,6.7,6.7,0,0,1,37.69,3.5C37.83,4.07,37.88,4.68,38,5.27Z"/>
<path d="M20.3,5.3a3.48,3.48,0,0,1,.94-2.42.85.85,0,0,1,1.3-.1.86.86,0,0,1,0,1.27,1.75,1.75,0,0,0,0,2.46.89.89,0,1,1-1.34,1.15A3.39,3.39,0,0,1,20.3,5.3Z"/>
<path d="M34.4,5.32a3.5,3.5,0,0,1-1,2.4.85.85,0,0,1-1.27.07.87.87,0,0,1,0-1.24A1.74,1.74,0,0,0,32.1,4a.86.86,0,0,1,.07-1.27.83.83,0,0,1,1.23.09A3.52,3.52,0,0,1,34.4,5.32Z"/>
<path d="M38.13,24.63c.19.29.32.47.44.66a26.51,26.51,0,0,1,3.69,8,2.36,2.36,0,0,0,.12.54.59.59,0,0,0,.31.33,7.13,7.13,0,0,1,3.61,2.61,5.3,5.3,0,0,0,2.36,2c.53.25.82.65.68,1.14a.9.9,0,0,1-1.18.58A4.64,4.64,0,0,1,45.83,39c-.54-.59-1-1.22-1.57-1.82a4,4,0,0,0-1.58-1.07c.09,1,.17,1.85.24,2.73a11.43,11.43,0,0,0,2.64,6.49.82.82,0,0,1-.1,1.26.86.86,0,0,1-1.29-.19,12.93,12.93,0,0,1-3-7c-.23-2-.48-4-.77-6a14.49,14.49,0,0,0-.55-1.89c-.1,0-.15,0-.16.05a29.83,29.83,0,0,0-2.39,6c-.13.67-.21,1.36-.29,2.05s-.39,1-.94,1-.85-.4-.82-1.06a16.23,16.23,0,0,1,1.58-6c.51-1.14,1-2.28,1.48-3.43A2.18,2.18,0,0,0,38.13,28c-.89-1.37-1.8-2.72-2.71-4.08a9.54,9.54,0,0,1-.54-.86.82.82,0,0,1,.35-1.15.8.8,0,0,1,1.16.29,1.12,1.12,0,0,0,1.25.64,6.07,6.07,0,0,1,4.42,1.78c.58.54,1.1,1.13,1.68,1.65a14.52,14.52,0,0,0,1.54,1.17.9.9,0,0,1,.4,1.22.79.79,0,0,1-1.17.35,18.1,18.1,0,0,1-2.06-1.54c-.75-.63-1.43-1.36-2.18-2A3.54,3.54,0,0,0,38.13,24.63Z"/>
<path d="M14.89,31.35a13.72,13.72,0,0,0-1,3.73c-.2,1.69-.33,3.38-.57,5.06a12.28,12.28,0,0,1-2.83,6.22.87.87,0,0,1-1.3.19.85.85,0,0,1-.07-1.3,11.76,11.76,0,0,0,2.68-7.1c0-.67.11-1.34.17-2L11.87,36a10.53,10.53,0,0,0-1.3,1c-.58.57-1.06,1.25-1.63,1.82a10.58,10.58,0,0,1-1.59,1.33,2.61,2.61,0,0,1-1.17.34.86.86,0,0,1-.27-1.68,4.09,4.09,0,0,0,2-1.5c.48-.58,1-1.15,1.51-1.69a5.47,5.47,0,0,1,2.45-1.42.5.5,0,0,0,.43-.46,16.85,16.85,0,0,1,2.18-5.66c.66-1.12,1.27-2.27,1.95-3.48a3.11,3.11,0,0,0-.91.22,18,18,0,0,0-2.12,1.44c-.74.6-1.37,1.34-2.09,2a5,5,0,0,1-1.24.78A.8.8,0,0,1,9,28.61a1,1,0,0,1,.41-1.19c.64-.47,1.27-1,1.87-1.49s1.23-1.22,1.89-1.76a5.9,5.9,0,0,1,4.3-1.35.56.56,0,0,0,.61-.3,2,2,0,0,1,.29-.41.8.8,0,0,1,1.15-.21.86.86,0,0,1,.28,1.18c-.23.41-.52.8-.79,1.19-.73,1.09-1.46,2.18-2.2,3.25a3,3,0,0,0-.22,3.23c.54,1.18,1.09,2.35,1.59,3.54a15,15,0,0,1,1.25,5.19.89.89,0,0,1-.57,1,.84.84,0,0,1-1.17-.69,18.42,18.42,0,0,0-2.25-7.27C15.25,32.17,15.1,31.82,14.89,31.35Z"/>
</g>
</g>
</svg>