<svg xmlns="http://www.w3.org/2000/svg" viewBox="0 0 49.98 57.44">
<g id="Layer_2" data-name="Layer 2">
<g id="Layer_1-2" data-name="Layer 1">
<path d="M34.08,14.2a4.8,4.8,0,0,0,.35,2.36,8.37,8.37,0,0,0,.66,1.21A.89.89,0,0,1,35,19a.85.85,0,0,1-1.24-.29,6.5,6.5,0,0,1-1.08-5.84,36.89,36.89,0,0,1,1.85-4.42,8.47,8.47,0,0,1,.75-1.07c-.13-.09-.3-.16-.33-.26a1.88,1.88,0,0,1-.09-.9c.12-.37.48-.47.87-.43a16.48,16.48,0,0,0,2,.15c.51,0,1.07-.08,1.3-.63A1.28,1.28,0,0,0,38.53,4a6.75,6.75,0,0,0-5.7-2.28,1.87,1.87,0,0,0-.41.09c-.76.26-1,.75-.57,1.41A7.74,7.74,0,0,0,33.3,4.69c.37.31.71.57.56,1.1a.87.87,0,0,1-1,.6,21.11,21.11,0,0,1-.54,2.15,30.18,30.18,0,0,1-1.41,3.31,6.78,6.78,0,0,1-4.8,3.57c-.75.16-1.21-.07-1.3-.59s.17-.86.95-1a5.26,5.26,0,0,0,4-3.35c.44-1.1.9-2.2,1.24-3.33a4.55,4.55,0,0,0,.06-1.69,2,2,0,0,0-.36-.93,2.84,2.84,0,0,1-.45-2.95A2.88,2.88,0,0,1,32.91,0,8.43,8.43,0,0,1,39.73,2.8a4,4,0,0,1,.68,1,2.46,2.46,0,0,1-1.93,3.65,3.9,3.9,0,0,0-2.84,2.32c-.38.73-.64,1.53-1,2.29-.14.3-.07.46.21.63a18.35,18.35,0,0,1,5.34,5c.37.51.35,1-.05,1.31a.86.86,0,0,1-1.27-.32,16.82,16.82,0,0,0-4.36-4.22Z"/>
<path d="M15.86,42.82a4.91,4.91,0,0,0-.87-3c-.44-.67-.44-1.14,0-1.45s.92-.15,1.35.52A6.89,6.89,0,0,1,17,45.55c-.24.61-.45,1.22-.74,1.8-.44.9-.93,1.79-1.45,2.77a.42.42,0,0,1,.16.11.77.77,0,0,1,.2,1,.84.84,0,0,1-.93.45,9.56,9.56,0,0,0-1.6-.18,3.56,3.56,0,0,0-1.2.24.7.7,0,0,0-.43,1,3.65,3.65,0,0,0,.71,1.06,7,7,0,0,0,4.79,2,3.64,3.64,0,0,0,1.22-.21.77.77,0,0,0,.49-1.15,3.89,3.89,0,0,0-1.41-1.62l-.38-.26a.81.81,0,0,1-.32-.9.71.71,0,0,1,.73-.59c.35,0,.38-.17.42-.45a5.41,5.41,0,0,1,.25-1.26,18.45,18.45,0,0,1,2.1-4.66A6.64,6.64,0,0,1,24.1,42c.63-.09,1,.17,1.07.67s-.23.83-.85.95a5.31,5.31,0,0,0-4.16,3.47,25.42,25.42,0,0,0-1,2.57A9.05,9.05,0,0,0,18.91,52a2,2,0,0,0,.38,1,3.17,3.17,0,0,1,.62,2.3,2.75,2.75,0,0,1-2.65,2.13,8.44,8.44,0,0,1-7-2.73A4,4,0,0,1,9.5,53.5a2.46,2.46,0,0,1,2-3.56,3.69,3.69,0,0,0,2.73-2.16c.49-.91.82-1.89,1.24-2.84.13-.29-.07-.37-.25-.49a18.59,18.59,0,0,1-5.05-4.63.86.86,0,0,1,0-1.3c.42-.31.88-.22,1.27.3a16.84,16.84,0,0,0,3.8,3.69l.39.25A1.93,1.93,0,0,0,15.86,42.82Z"/>
<path d="M41.48,24.37a3.25,3.25,0,0,0-.95,1.85c-.06.39-.27.71-.65.74a1.14,1.14,0,0,1-.81-.29,1,1,0,0,1-.16-.77,4.84,4.84,0,0,1,2.91-3.73,26.25,26.25,0,0,1,2.73-1,7.13,7.13,0,0,1,1.66-.29,1.48,1.48,0,0,1,.74.3c.25.16.46.41.71.58s.5.07.58-.25a2.35,2.35,0,0,0,.09-.64A4.61,4.61,0,0,0,47,17.75a1.22,1.22,0,0,0-.25-.2c-.48-.33-.73-.22-.82.35,0,.18,0,.37,0,.55a1.28,1.28,0,0,1-.23.59,9.94,9.94,0,0,1-5.39,2.72,4.58,4.58,0,0,1-3.52-1,.82.82,0,1,1,.95-1.34,3.41,3.41,0,0,0,3.58.32c.48-.21,1-.38,1.45-.6a2.72,2.72,0,0,0,1.66-1.9,2,2,0,0,1,3-1.3,5.86,5.86,0,0,1,2.45,6,1.93,1.93,0,0,1-3,1.15,2.63,2.63,0,0,0-2.5-.2c-.41.14-.94.25-1.13.55s.07.78.15,1.17a17.88,17.88,0,0,1,.21,6.76,4.8,4.8,0,0,1-.09.5.81.81,0,1,1-1.6-.24c0-.44.11-.89.16-1.33a16.24,16.24,0,0,0-.35-5.6C41.6,24.64,41.55,24.55,41.48,24.37Z"/>
<path d="M10.35,20.12a3.61,3.61,0,0,0,1.83-.59,1.06,1.06,0,0,1,.72-.2,1.17,1.17,0,0,1,.63.57.76.76,0,0,1-.37,1,4.78,4.78,0,0,1-4.48.67,9,9,0,0,1-3.76-2,.64.64,0,0,0-.2-.11.9.9,0,0,1-.63-1A3.35,3.35,0,0,0,4,17.64c-.08-.35-.31-.46-.62-.26a3.19,3.19,0,0,0-.6.5A4.36,4.36,0,0,0,1.67,21a.93.93,0,0,0,.32.7c.12.07.45-.15.67-.27s.26-.28.41-.37a1.3,1.3,0,0,1,.64-.2,13.13,13.13,0,0,1,4.53,1.32A4.89,4.89,0,0,1,11,26a.8.8,0,0,1-.67,1,.83.83,0,0,1-.93-.75,3.36,3.36,0,0,0-2.18-2.66c-.78-.31-1.58-.61-2.39-.85a1.85,1.85,0,0,0-1.58.3,2,2,0,0,1-3.2-1.36,6,6,0,0,1,2.3-5.61,2,2,0,0,1,3.22,1.19,2.7,2.7,0,0,0,1.74,2c.3.15.63.25.93.4s.41.05.55-.2a18.07,18.07,0,0,1,4.95-5.67l.14-.12c.54-.4,1-.39,1.35,0s.19.9-.35,1.3A16.94,16.94,0,0,0,10.7,19.5C10.59,19.66,10.51,19.84,10.35,20.12Z"/>
<path d="M8.68,32.81a3,3,0,0,0,.76-1.64.79.79,0,0,1,.68-.71.78.78,0,0,1,.93.9,4.3,4.3,0,0,1-1.62,3.07,9.08,9.08,0,0,1-4.9,2c-.06,0-.13,0-.18,0-.75.39-1.27,0-1.77-.5a.76.76,0,0,0-.64-.23c-.16.06-.28.39-.29.61a4.25,4.25,0,0,0,1.43,3.51.88.88,0,0,0,.68.24c.15,0,.23-.4.29-.62s0-.41,0-.6a1.17,1.17,0,0,1,.31-.58,12.17,12.17,0,0,1,4.12-2.28,5,5,0,0,1,4.62.64.86.86,0,0,1,.3,1.2.83.83,0,0,1-1.22.16,3.42,3.42,0,0,0-3.55-.29c-.51.23-1,.4-1.53.65A2.59,2.59,0,0,0,5.6,40.07a2,2,0,0,1-3.26,1.22A5.48,5.48,0,0,1,.09,37.6a5.33,5.33,0,0,1,0-1.91,2,2,0,0,1,3.21-1.32,2.28,2.28,0,0,0,2,.25A15.31,15.31,0,0,0,6.9,34c.29-.1.22-.28.16-.48a18.54,18.54,0,0,1-.64-5.35c0-.78.11-1.56.18-2.34a.85.85,0,0,1,1-.88c.5.06.76.46.67,1.07a17.11,17.11,0,0,0,.16,6c0,.23.1.45.16.67C8.57,32.71,8.62,32.74,8.68,32.81Z"/>
<path d="M39.62,37.33A3.12,3.12,0,0,0,37.7,38a.82.82,0,1,1-1-1.33,4.68,4.68,0,0,1,4.38-.77,10.22,10.22,0,0,1,3.45,1.63,8,8,0,0,1,.88.65,1.78,1.78,0,0,1,.38.78c.08.26,0,.55.08.82.09.43.29.51.66.3a1.91,1.91,0,0,0,.47-.38,4.3,4.3,0,0,0,1.22-3.37c-.06-.68-.4-.83-.9-.36a1.91,1.91,0,0,1-1.57.49,9.46,9.46,0,0,1-4.64-1.51,4.63,4.63,0,0,1-2.27-3.39.84.84,0,1,1,1.64-.28,3.31,3.31,0,0,0,2.16,2.62c.8.31,1.6.62,2.43.86a1.86,1.86,0,0,0,1.53-.3,2,2,0,0,1,3.28,1.76A6,6,0,0,1,48.07,41a3.55,3.55,0,0,1-.71.51,2,2,0,0,1-3-1.43,2.5,2.5,0,0,0-1.45-1.73c-.45-.24-1-.61-1.39-.51s-.62.73-.89,1.14a18.34,18.34,0,0,1-4.49,4.68c-.5.37-1,.33-1.26-.08a.82.82,0,0,1,.28-1.23,17,17,0,0,0,4.25-4.53C39.45,37.67,39.51,37.53,39.62,37.33Z"/>
<path d="M20.65,12.21a3.3,3.3,0,0,0,1.81,1,1.05,1.05,0,0,1,.65.42,1.16,1.16,0,0,1,0,.86.73.73,0,0,1-.88.33,4.73,4.73,0,0,1-3.66-2.67A9.33,9.33,0,0,1,17.3,8.33a.28.28,0,0,0,0-.13c-.49-.71-.2-1.21.37-1.71.22-.18.29-.54.42-.82a2.89,2.89,0,0,0-.92-.29A4.18,4.18,0,0,0,13.86,6.9c-.13.15-.26.46-.19.6s.37.22.58.28a1.73,1.73,0,0,0,.51,0c.7,0,.85.11,1.08.8a.68.68,0,0,0,.14.23A9.65,9.65,0,0,1,17.93,13a4.66,4.66,0,0,1-.83,3.94.84.84,0,0,1-.92.39.72.72,0,0,1-.6-.68,1.18,1.18,0,0,1,.2-.68,3.44,3.44,0,0,0,.32-3.39c-.27-.64-.51-1.29-.83-1.9a2.39,2.39,0,0,0-1.68-1.32,2,2,0,0,1-1.36-3,5,5,0,0,1,3.49-2.44A6,6,0,0,1,18,3.83a1.91,1.91,0,0,1,1.44,3,2.86,2.86,0,0,0-.17,2.85c.41,1.05.41,1.05,1.52.78a18.49,18.49,0,0,1,6.42-.37c.64.08,1,.4.92.92s-.46.78-1.09.71a16.72,16.72,0,0,0-6.14.42Z"/>
<path d="M29.09,44.89a14.75,14.75,0,0,0-1.56-.6c-.62-.19-.91-.5-.8-1s.52-.73,1.15-.6a4.71,4.71,0,0,1,3.52,2.65,29.93,29.93,0,0,1,1.19,3.2A4.92,4.92,0,0,1,32.82,50a1.48,1.48,0,0,1-.32.77c-.15.25-.39.44-.55.68s-.12.45.19.58c1.11.48,3.76-.63,4.15-1.76a.52.52,0,0,0-.2-.45,2,2,0,0,0-.77-.12,1,1,0,0,1-1-.65.77.77,0,0,0-.17-.27A9.22,9.22,0,0,1,32,44.19a4.55,4.55,0,0,1,.81-3.56.93.93,0,0,1,.86-.52.83.83,0,0,1,.61,1.29,8.71,8.71,0,0,0-.56,1.15,3.06,3.06,0,0,0,.07,2.09c.26.67.52,1.35.84,2a2.53,2.53,0,0,0,1.77,1.48,1.94,1.94,0,0,1,1.3,3,5.41,5.41,0,0,1-3.45,2.38,4.17,4.17,0,0,1-2.68,0,1.87,1.87,0,0,1-1-2.85,3,3,0,0,0,.14-3c-.46-1.14-.45-1.11-1.63-.85a18.3,18.3,0,0,1-6.43.25.79.79,0,0,1-.75-.93.87.87,0,0,1,1-.71c1.2,0,2.4.12,3.6.09a18.7,18.7,0,0,0,2.33-.34,1.31,1.31,0,0,0,.28-.12Z"/>
<path d="M30,29a4.16,4.16,0,0,1-3.48,3.94,5.6,5.6,0,0,1-5.71-2.56,4,4,0,0,1,2.63-6.07,5.46,5.46,0,0,1,6.11,3.06A12.21,12.21,0,0,1,30,29Zm-5.41-3.14c-.14,0-.28,0-.42,0a2.35,2.35,0,0,0-2.05,3.49,3.88,3.88,0,0,0,4.59,1.81,2.26,2.26,0,0,0,1.21-3.4A3.81,3.81,0,0,0,24.61,25.84Z"/>
<path d="M30.73,24.27a3.16,3.16,0,0,1,3.21-3.18,3.37,3.37,0,0,1,3.41,3.29,3.18,3.18,0,0,1-3.22,3.18A3.34,3.34,0,0,1,30.73,24.27ZM34,22.75a1.52,1.52,0,0,0-1.61,1.49,1.73,1.73,0,0,0,1.74,1.67,1.5,1.5,0,0,0,1.57-1.47A1.67,1.67,0,0,0,34,22.75Z"/>
<path d="M29.32,40.83a3.35,3.35,0,0,1-3.4-3.3,3.19,3.19,0,0,1,3.22-3.18,3.4,3.4,0,0,1,3.4,3.31A3.18,3.18,0,0,1,29.32,40.83Zm0-1.66a1.5,1.5,0,0,0,1.58-1.51A1.7,1.7,0,0,0,29.17,36a1.55,1.55,0,0,0-1.61,1.49A1.71,1.71,0,0,0,29.3,39.17Z"/>
<path d="M18.82,32.49a3.15,3.15,0,0,1-3.24,3.14,3.35,3.35,0,0,1-3.37-3.32,3.16,3.16,0,0,1,3.25-3.14A3.31,3.31,0,0,1,18.82,32.49ZM15.6,34a1.54,1.54,0,0,0,1.58-1.53,1.72,1.72,0,0,0-1.76-1.65,1.52,1.52,0,0,0-1.55,1.5A1.7,1.7,0,0,0,15.6,34Z"/>
<path d="M17.79,18.21a3.37,3.37,0,0,1,3.41,3.3A3.21,3.21,0,0,1,18,24.69a3.38,3.38,0,0,1-3.4-3.31A3.16,3.16,0,0,1,17.79,18.21Zm0,1.66a1.52,1.52,0,0,0-1.61,1.49A1.75,1.75,0,0,0,17.92,23a1.54,1.54,0,0,0,1.62-1.49A1.68,1.68,0,0,0,17.82,19.87Z"/>
</g>
</g>
</svg>