<svg xmlns="http://www.w3.org/2000/svg" viewBox="0 0 39.81 55.64">
<g id="Layer_2" data-name="Layer 2">
<g id="Layer_1-2" data-name="Layer 1">
<path d="M11.05,54.1a4.25,4.25,0,0,1-3.18,1.54A4.07,4.07,0,0,1,3.7,51.87c-.09-2.14-.05-4.29,0-6.43a2.12,2.12,0,0,0-.32-1.23,4.37,4.37,0,0,1-.41-.77A1.15,1.15,0,0,0,2,42.67a1.77,1.77,0,0,1-1.23-1.5,22.64,22.64,0,0,1-.65-3.72C0,35.22,0,33,0,30.75a16.34,16.34,0,0,1,2.14-7.86c.37-.62.84-1.17,1.25-1.77a1.19,1.19,0,0,0,.22-.62c0-4,0-8,0-12A8.49,8.49,0,0,0,2.06,4c-.25-.39-.53-.75-.75-1.16A1.83,1.83,0,0,1,2.67.06a13.07,13.07,0,0,1,2,0A23.15,23.15,0,0,1,7.42.13a4,4,0,0,1,3,2.15A12.23,12.23,0,0,1,12,7.69c0,.07,0,.15,0,.35a13.18,13.18,0,0,1,.81-1.31A1.16,1.16,0,0,0,13,5.46c-.22-.62-.38-1.27-.54-1.91A2.46,2.46,0,0,1,17.1,1.94a3.65,3.65,0,0,1,.27.69c.11.51.4.5.82.4s.29-.35.32-.57a2.77,2.77,0,0,1,4.21-2A2.62,2.62,0,0,1,24,2.84c0,.5.2.68.6.87a6.76,6.76,0,0,1,3.58,3.44,5.64,5.64,0,0,1,.39,3.22l-.13.78c.51.09,1,.15,1.5.28a21.34,21.34,0,0,1,2.47.76,3.14,3.14,0,0,1,1.79,3.63,3.22,3.22,0,0,1-3.13,2.46h-.57a2.89,2.89,0,0,0,.19.27A8.52,8.52,0,0,1,33.31,24a.54.54,0,0,1,0,.18A2.06,2.06,0,0,0,33.78,26a43.89,43.89,0,0,1,5.6,14.55,20.74,20.74,0,0,1-.05,8.63,8.8,8.8,0,0,1-2.72,5A6.46,6.46,0,0,1,32,55.63a37.51,37.51,0,0,1-5.55-1c-1.73-.34-3.49-.56-5.25-.78-1-.12-2-.14-3-.18a.64.64,0,0,0-.5.21,4.13,4.13,0,0,1-6.47.34ZM9.65,34.83l-.18,0c-.64.54-1.26,1.09-1.92,1.6a4.12,4.12,0,0,0-1.32,2.07c-.1.31-.18.62-.27.93a4.82,4.82,0,0,1-1.57,2.8,1.45,1.45,0,0,0,.1.24c.15.3.3.61.48.9,3.16,5.16,8,7.66,13.78,8.51,2,.29,4,.34,5.93.52.28,0,.36-.1.39-.33a10.37,10.37,0,0,1,1.71-4.15A16,16,0,0,0,28,45.68a6.59,6.59,0,0,0,.64-3.14c-.1-1.6-1.05-2.86-1.85-4.15-.06,0-.1,0-.12,0l-.12.14a3.32,3.32,0,0,1-2.18,1.27,1,1,0,0,1-1.22-.69c-.11-.55.22-1,.89-1.12a3,3,0,0,0,1.89-2.28,22.9,22.9,0,0,1,.74-5.21c.21-.92.48-1.84.73-2.77-.43-.16-.86-.29-1.26-.47a3,3,0,0,1-1.8-1.93c-.09-.37-.23-.43-.59-.43-1.35,0-2.7,0-4.05-.07a12.34,12.34,0,0,1-2.11-.48.82.82,0,0,0-.06.19A7.65,7.65,0,0,1,16,28.25a1.52,1.52,0,0,0-.24,1.3,4.28,4.28,0,0,0,2.88,2.94c.52.22.82.59.72,1.07a.94.94,0,0,1-1.12.73l-.66-.15c0,.09,0,.15-.06.21-.14.61-.44.89-.95.88s-.8-.34-.9-1a4.85,4.85,0,0,0-.3-1.34c-.38-.76-.86-1.47-1.3-2.2-.95.87-1.89,1.73-2.82,2.61a.5.5,0,0,0-.08.37c.23,1.25.46,2.51.73,3.76a.58.58,0,0,0,.36.36c.54.11,1.1.15,1.64.23s.75.28.78.68a1.36,1.36,0,0,1-.28.9,1.18,1.18,0,0,1-.8.24c-.5,0-1-.06-1.53-.1a3,3,0,0,0,1.29,2.11.94.94,0,0,1,.26,1.34.92.92,0,0,1-1.35.13,4.39,4.39,0,0,1-2-2.71,22.39,22.39,0,0,1-.25-2.48C10,37,9.8,35.94,9.65,34.83Zm17.21,18a21.7,21.7,0,0,0,5.43,1,4.15,4.15,0,0,0,3.47-1.44A8,8,0,0,0,37.11,50a17.65,17.65,0,0,0,.41-9.4A41.6,41.6,0,0,0,33.66,29.5c-.45-.87-.95-1.71-1.45-2.61a5.15,5.15,0,0,1-2.56.91.46.46,0,0,0-.33.23c-.84,1.9-.82,2.51.09,4.38a.36.36,0,0,1,0,.09,5.61,5.61,0,0,0,3.17,2.8,5,5,0,0,1,1.87,1.12A10.17,10.17,0,0,1,36,38.57a.84.84,0,0,1-.42,1.2.91.91,0,0,1-1.2-.38c-.1-.17-.19-.35-.29-.53A3.75,3.75,0,0,0,31.94,37a6.6,6.6,0,0,1-3.79-3,2.26,2.26,0,0,0-.23-.26c0,.15-.06.24-.07.33s0,.27-.05.41A5.38,5.38,0,0,0,28.74,38a11.1,11.1,0,0,1,1.72,3.86.87.87,0,0,0,.36.49,13.8,13.8,0,0,1,3.64,4.08,2.51,2.51,0,0,0,.92.85c.53.29.8.66.66,1.16a.92.92,0,0,1-1.21.62,7.35,7.35,0,0,1-1-.43c-.23.33-.44.69-.69,1a.9.9,0,0,1-1.31.21,1,1,0,0,1-.18-1.32,12,12,0,0,0,.66-1.46.72.72,0,0,0,0-.54,8.32,8.32,0,0,0-1.91-2.11c-.06.09-.1.12-.11.16a16,16,0,0,1-2.41,5A6.51,6.51,0,0,0,26.86,52.79Zm-25-19.42c.05,1.21.05,2.43.17,3.64s.33,2.28.5,3.42c.06.38.31.42.61.32a1.33,1.33,0,0,0,.81-1c.27-.85.52-1.71.82-2.55a7.5,7.5,0,0,1,2.65-3.07,46.43,46.43,0,0,0,6.26-5.8A8.72,8.72,0,0,0,15.58,25a1.71,1.71,0,0,0-1-2.34,9.07,9.07,0,0,0-1-.44c-1.31-.51-2.66-.92-3.91-1.53a2.9,2.9,0,0,0-3,.16,9.06,9.06,0,0,0-3.83,5A20.84,20.84,0,0,0,1.81,33.37Zm19-20.86a14.2,14.2,0,0,1,2.15-.84c1-.25,2.12-.33,3.19-.5.17,0,.44-.12.47-.23a4.07,4.07,0,0,0-1-4.39A6.59,6.59,0,0,0,23,5a1,1,0,0,1-.83-1.17c0-.36,0-.71,0-1.06a.89.89,0,0,0-.86-.92.9.9,0,0,0-.95.87c0,.3,0,.62,0,.92a1,1,0,0,1-.87,1q-1,.21-2,.45a1,1,0,0,1-1.34-.62c-.24-.57-.45-1.15-.69-1.71s-.48-.64-.84-.52-.46.45-.33.94c.24.86.48,1.72.74,2.58a1.45,1.45,0,0,1-.23,1.34A14.66,14.66,0,0,0,13.4,9.59C12.12,12.74,12,16.07,12,19.41a.39.39,0,0,0,.2.3c.63.25,1.27.48,1.92.67.3.1.58.09.72-.33a15,15,0,0,1,3.23-5.13,2.25,2.25,0,0,0,.49-1.1,14.33,14.33,0,0,1,.74-2.6,3,3,0,0,1,2.76-1.93,1,1,0,0,1,1,.85.9.9,0,0,1-.84,1A1.81,1.81,0,0,0,20.77,12.51ZM21.92,23.2c.85-.06,1.69-.12,2.54-.21A.76.76,0,0,0,25,22.8a6.93,6.93,0,0,0,.93-1.62,6.05,6.05,0,0,0,0-3c-.17-.92.05-1.25.91-1.51a7.9,7.9,0,0,1,3.74-.26A1.58,1.58,0,0,0,32,16.07a1.33,1.33,0,0,0-.5-2.27,13.2,13.2,0,0,0-6.32-.71,7.77,7.77,0,0,0-4,1.48,12,12,0,0,0-2.81,3,24.68,24.68,0,0,0-1.79,3.22c-.36.77-.22.93.54,1.32A9.82,9.82,0,0,0,21.92,23.2ZM3.06,1.9a.45.45,0,0,0,0,.12l.6.93A11,11,0,0,1,5.53,9.09c0,3.19,0,6.38,0,9.57v.61A3.84,3.84,0,0,1,6,19c.71-.2,1.41-.4,2.12-.58.51-.12,1-.21,1.52-.32s.46-.29.46-.66c0-2.9,0-5.79,0-8.69a11.22,11.22,0,0,0-1.23-5.3,2.66,2.66,0,0,0-2.49-1.6c-1,0-2,0-3.06,0C3.26,1.87,3.16,1.89,3.06,1.9ZM28,18.88c0,.27,0,.49,0,.69a15.09,15.09,0,0,1-.44,2.62,8.44,8.44,0,0,1-1.18,1.9c-.38.56-.33.95.23,1.33a2.7,2.7,0,0,0,.44.24,5.22,5.22,0,0,0,3.53,0,1.15,1.15,0,0,0,.85-1.14,6,6,0,0,0-1.66-4.32A5,5,0,0,0,28,18.88ZM5.7,47.31l-.15.11a2.48,2.48,0,0,0,0,.27c0,1.23,0,2.47,0,3.7a2.3,2.3,0,1,0,4.6-.09.87.87,0,0,0-.3-.54c-1-.79-2.11-1.55-3.13-2.36A8.61,8.61,0,0,1,5.7,47.31ZM12.05,52a2.35,2.35,0,0,0,1.66,1.72,2.16,2.16,0,0,0,2-.43Z"/>
</g>
</g>
</svg>