<svg xmlns="http://www.w3.org/2000/svg" viewBox="0 0 49.11 49.01">
<g id="Layer_2" data-name="Layer 2">
<g id="Layer_1-2" data-name="Layer 1">
<path d="M11.28,46.69a11.23,11.23,0,0,1-9.13-9,7.93,7.93,0,0,1,6-8.86,14.24,14.24,0,0,1,2.36-.35l.25,0a1.85,1.85,0,0,0,1.94-1.75l.65-4.22,1.29-8.39c.33-2.08.62-4,1-5.8A10.22,10.22,0,0,1,19.27,2a8.21,8.21,0,0,1,11.15.49,10.49,10.49,0,0,1,3.21,6.2l.62,3.89q.82,5.13,1.64,10.25c.18,1.09.33,2.18.48,3.28l.05.41a1.9,1.9,0,0,0,2.16,1.94,8.6,8.6,0,0,1,7.23,3.8,7.68,7.68,0,0,1,1.25,4.42A10.42,10.42,0,0,1,43.41,44a10.11,10.11,0,0,1-5.48,2.69h-.19a.86.86,0,0,1-.93-.69.9.9,0,0,1,.83-1.08,9.51,9.51,0,0,0,7.49-7.2,6.19,6.19,0,0,0-5-7.3,10.61,10.61,0,0,0-1.93-.21,3.58,3.58,0,0,1-3.54-3.15Q33.28,17.87,31.81,8.7a8.47,8.47,0,0,0-2.92-5.22,6.53,6.53,0,0,0-4.32-1.67A6.77,6.77,0,0,0,19.78,3.9a9.33,9.33,0,0,0-2.59,5.39q-.87,5.58-1.76,11.15l-.8,5c-.08.51-.15,1-.22,1.53a3.54,3.54,0,0,1-3.58,3.19,9.4,9.4,0,0,0-2.34.33,6.36,6.36,0,0,0-4.06,3.29,6.26,6.26,0,0,0-.08,5.11,9.17,9.17,0,0,0,7.19,6,.9.9,0,0,1,.75,1,.88.88,0,0,1-.88.75Z"/>
<path d="M24.54,49a8.11,8.11,0,0,1-5.69-2.25,2.78,2.78,0,0,1-.48-.57l-.35-.5c-.53-.76-1.07-1.54-1.56-2.33a6.43,6.43,0,0,0-4.51-3,.89.89,0,0,1-.82-.68.82.82,0,0,1,.26-.88.77.77,0,0,1,.57-.25h.18a8.12,8.12,0,0,1,5.64,3.56l.71,1.05c.3.45.61.9.91,1.36a5.69,5.69,0,0,0,5.05,2.68c.26,0,.52,0,.78,0a6,6,0,0,0,4.63-2.83c.3-.47.61-.92.92-1.37l.59-.88A8,8,0,0,1,37,38.57l.13,0a.9.9,0,0,1,.85.72.89.89,0,0,1-.64,1l-.46.15a14.29,14.29,0,0,0-1.77.61,5.09,5.09,0,0,0-2.24,2l-1.7,2.53a7.84,7.84,0,0,1-5.52,3.37c-.2,0-.4.06-.59.07h-.54Z"/>
<path d="M8.58,10.76a1.09,1.09,0,0,1-.46-.1C6.34,9.9,4.56,9.13,2.8,8.34a.92.92,0,0,1-.6-.68,1,1,0,0,1,.36-.9c.18-.17.35-.36.53-.55L4.28,4.94,2.21,4c-.57-.25-1.14-.49-1.7-.75A.88.88,0,0,1,.87,1.6a1.29,1.29,0,0,1,.45.11c1.65.7,3.31,1.4,4.95,2.12A1.07,1.07,0,0,1,7,4.56a1.07,1.07,0,0,1-.4.93L4.81,7.13l1.42.73a2.53,2.53,0,0,0,.36.19l.87.37L8.82,9a.91.91,0,0,1,.54,1.22A.81.81,0,0,1,8.58,10.76Z"/>
<path d="M40.53,10.76a.83.83,0,0,1-.79-.54A.9.9,0,0,1,40.31,9l1.44-.63L42.54,8l.33-.16,1.47-.71L42.49,5.42a1,1,0,0,1-.33-.87.91.91,0,0,1,.57-.66c1.71-.77,3.43-1.5,5.16-2.22a1,1,0,0,1,.37-.08.78.78,0,0,1,.75.46.89.89,0,0,1-.4,1.24l-1.33.58-.68.29L44.74,5l1.8,1.72a1.06,1.06,0,0,1,.38.91,1,1,0,0,1-.63.7Q43.67,9.52,41,10.65A1.28,1.28,0,0,1,40.53,10.76Z"/>
<path d="M44.45,22a.79.79,0,0,1-.3-.05c-1.25-.42-2.6-.93-4.15-1.54a.86.86,0,0,1-.48-1.15.83.83,0,0,1,.81-.55,1.33,1.33,0,0,1,.34.05c.31.1.62.22.94.34l1.67.6.2-1.68a.87.87,0,0,1,.82-.83.52.52,0,0,1,.21,0c1.26.41,2.57.9,4.12,1.54A.84.84,0,0,1,49,19.81a.91.91,0,0,1-.83.56,1.09,1.09,0,0,1-.26,0c-.27-.08-.53-.18-.8-.29l-1.59-.59-.2,1.33c0,.11,0,.2,0,.3A.87.87,0,0,1,44.45,22Z"/>
<path d="M4.65,21.94c-.49,0-.77-.35-.84-1V20.8l-.06-.19-.32-1-1,.27-1.07.39a1.25,1.25,0,0,1-.42.08.85.85,0,0,1-.82-.57A.88.88,0,0,1,.7,18.62c1.1-.43,2.21-.84,3.33-1.26l.2-.07a1.67,1.67,0,0,1,.58-.12c.48,0,.76.33.83,1a1.48,1.48,0,0,0,.07.29L6,19.52l1-.3,1.22-.44a1.55,1.55,0,0,1,.54-.1.77.77,0,0,1,.8.56c.29.77-.49,1.13-.73,1.23L5.24,21.82A1.68,1.68,0,0,1,4.65,21.94Z"/>
</g>
</g>
</svg>